<svg width="545" height="415" viewBox="0 0 545 415" fill="none" xmlns="http://www.w3.org/2000/svg">
<rect y="206" width="545" height="209" rx="20" fill="#2BAE5B"/>
<path d="M114.96 283.44H87V298.56H113.4V318.48H87V334.08H114.96V354H63.48V263.52H114.96V283.44ZM125.078 292.44H146.798V300C152.718 294.32 159.358 291.48 166.718 291.48C175.838 291.48 182.798 295.32 187.598 303C192.478 295.24 199.438 291.36 208.478 291.36C211.358 291.36 214.078 291.8 216.638 292.68C219.198 293.48 221.398 294.8 223.238 296.64C225.078 298.4 226.518 300.72 227.558 303.6C228.678 306.48 229.238 309.96 229.238 314.04V354H207.518V323.64C207.518 320.52 207.278 317.96 206.798 315.96C206.398 313.96 205.758 312.4 204.878 311.28C204.078 310.16 203.118 309.4 201.998 309C200.878 308.6 199.678 308.4 198.398 308.4C191.438 308.4 187.958 313.48 187.958 323.64V354H166.238V323.64C166.238 320.52 166.038 317.96 165.638 315.96C165.238 313.88 164.638 312.24 163.838 311.04C163.118 309.84 162.158 309.04 160.958 308.64C159.758 308.16 158.358 307.92 156.758 307.92C155.398 307.92 154.118 308.12 152.918 308.52C151.718 308.92 150.638 309.72 149.678 310.92C148.798 312.04 148.078 313.64 147.518 315.72C147.038 317.72 146.798 320.36 146.798 323.64V354H125.078V292.44ZM290.529 323.4C290.529 321.48 290.169 319.68 289.449 318C288.809 316.24 287.849 314.72 286.569 313.44C285.289 312.16 283.769 311.16 282.009 310.44C280.329 309.64 278.489 309.24 276.489 309.24C274.569 309.24 272.769 309.6 271.089 310.32C269.409 311.04 267.929 312.04 266.649 313.32C265.449 314.6 264.449 316.12 263.649 317.88C262.929 319.56 262.569 321.36 262.569 323.28C262.569 325.2 262.929 327 263.649 328.68C264.369 330.36 265.369 331.84 266.649 333.12C267.929 334.32 269.409 335.32 271.089 336.12C272.849 336.84 274.689 337.2 276.609 337.2C278.529 337.2 280.329 336.84 282.009 336.12C283.689 335.4 285.129 334.4 286.329 333.12C287.609 331.84 288.609 330.36 289.329 328.68C290.129 327 290.529 325.24 290.529 323.4ZM263.169 384.72H241.449V292.44H263.169V299.28C267.809 293.44 274.129 290.52 282.129 290.52C286.529 290.52 290.609 291.4 294.369 293.16C298.209 294.84 301.529 297.16 304.329 300.12C307.129 303.08 309.289 306.56 310.809 310.56C312.409 314.56 313.209 318.84 313.209 323.4C313.209 327.96 312.409 332.2 310.809 336.12C309.289 340.04 307.129 343.48 304.329 346.44C301.609 349.4 298.369 351.72 294.609 353.4C290.849 355.08 286.769 355.92 282.369 355.92C274.689 355.92 268.289 353.28 263.169 348V384.72ZM340.95 323.04C340.95 325.04 341.31 326.92 342.03 328.68C342.75 330.36 343.71 331.84 344.91 333.12C346.19 334.4 347.67 335.4 349.35 336.12C351.11 336.84 352.99 337.2 354.99 337.2C356.91 337.2 358.71 336.84 360.39 336.12C362.15 335.4 363.63 334.4 364.83 333.12C366.11 331.84 367.11 330.36 367.83 328.68C368.63 327 369.03 325.2 369.03 323.28C369.03 321.36 368.63 319.56 367.83 317.88C367.11 316.12 366.11 314.6 364.83 313.32C363.63 312.04 362.15 311.04 360.39 310.32C358.71 309.6 356.91 309.24 354.99 309.24C352.99 309.24 351.11 309.6 349.35 310.32C347.67 311.04 346.19 312.04 344.91 313.32C343.71 314.6 342.75 316.08 342.03 317.76C341.31 319.36 340.95 321.12 340.95 323.04ZM368.31 292.44H390.15V354H368.31V347.16C363.67 353 357.39 355.92 349.47 355.92C344.99 355.92 340.87 355.12 337.11 353.52C333.35 351.84 330.07 349.52 327.27 346.56C324.47 343.6 322.27 340.12 320.67 336.12C319.15 332.12 318.39 327.76 318.39 323.04C318.39 318.64 319.15 314.48 320.67 310.56C322.19 306.56 324.31 303.08 327.03 300.12C329.75 297.16 332.99 294.84 336.75 293.16C340.51 291.4 344.67 290.52 349.23 290.52C356.91 290.52 363.27 293.2 368.31 298.56V292.44ZM446.571 312.36C442.811 309.8 439.011 308.52 435.171 308.52C433.091 308.52 431.131 308.88 429.291 309.6C427.531 310.32 425.971 311.36 424.611 312.72C423.251 314 422.171 315.56 421.371 317.4C420.651 319.16 420.291 321.16 420.291 323.4C420.291 325.56 420.651 327.56 421.371 329.4C422.171 331.16 423.211 332.72 424.491 334.08C425.851 335.36 427.451 336.36 429.291 337.08C431.131 337.8 433.091 338.16 435.171 338.16C439.251 338.16 443.051 336.76 446.571 333.96V352.44C441.211 354.76 436.131 355.92 431.331 355.92C426.851 355.92 422.571 355.16 418.491 353.64C414.491 352.12 410.931 349.96 407.811 347.16C404.771 344.28 402.331 340.88 400.491 336.96C398.651 332.96 397.731 328.52 397.731 323.64C397.731 318.76 398.611 314.32 400.371 310.32C402.131 306.24 404.531 302.76 407.571 299.88C410.611 296.92 414.211 294.64 418.371 293.04C422.611 291.36 427.131 290.52 431.931 290.52C437.211 290.52 442.091 291.64 446.571 293.88V312.36ZM478.399 310.56V354H456.679V310.56H449.479V292.44H456.679V273.96H478.399V292.44H490.759V310.56H478.399Z" fill="white"/>
<path fill-rule="evenodd" clip-rule="evenodd" d="M164.464 133.343C173.262 153.479 148.126 168.314 129.269 161.956C122.985 175.732 119.215 191.63 128.012 207.527H105.386C112.928 194.811 114.184 181.033 104.13 164.079C78.9892 173.615 55.1098 149.241 71.4484 130.167C56.3667 116.392 65.1641 95.1956 89.0471 95.1956C90.3039 67.6417 140.581 67.6417 141.841 96.2552C166.981 92.0166 183.32 118.511 164.467 133.346L164.464 133.343ZM126.756 159.837C124.242 158.777 122.985 157.718 121.728 156.658L122.985 167.254L126.756 159.837ZM114.188 157.718C112.931 159.837 110.417 160.897 109.16 161.956C110.417 165.135 111.674 167.255 112.931 170.433L114.188 157.718Z" fill="#2BAE5B"/>
<path fill-rule="evenodd" clip-rule="evenodd" d="M351.997 91.6445C365.211 122.842 326.886 146.24 296.491 136.211C287.241 158.496 280.635 181.891 293.848 207.518H258.167C270.059 188.576 271.38 166.294 258.167 139.553C218.521 155.153 180.196 116.154 205.307 87.1851C181.519 66.0141 196.057 32.5892 233.06 32.5892C235.703 -10.8631 313.673 -10.8631 314.995 32.5892C354.641 27.0187 379.75 68.243 351.998 91.6414L351.997 91.6445ZM291.206 133.983C288.563 131.754 285.92 130.64 284.599 128.412L285.92 144.012L291.205 133.986L291.206 133.983ZM272.703 129.526C270.06 132.869 267.417 135.097 264.774 136.211C266.096 140.667 268.738 145.123 271.381 149.58L272.703 129.523V129.526Z" fill="#2BAE5B"/>
<path fill-rule="evenodd" clip-rule="evenodd" d="M386.327 142.703C378.64 160.299 400.604 173.262 417.081 167.706C422.573 179.743 425.867 193.635 419.278 207.527H439.049C432.459 196.416 431.361 184.376 439.049 169.561C461.017 177.894 481.883 156.595 467.607 139.928C481.883 127.891 473.098 109.37 453.33 109.37C451.133 85.2924 408.299 85.2924 407.197 110.295C384.131 106.592 370.952 129.743 386.327 142.706L386.327 142.703ZM420.376 165.855C421.474 164.929 422.573 164.003 423.671 163.077V172.336L420.376 165.855ZM430.26 164.003C431.358 165.855 433.555 166.781 435.751 167.706C433.555 170.484 432.457 172.336 431.358 175.114L430.26 164.003Z" fill="#2BAE5B"/>
</svg>
